<mxfile host="app.diagrams.net" modified="2022-12-28T13:07:08.483Z" agent="5.0 (Windows NT 10.0; Win64; x64) AppleWebKit/537.36 (KHTML, like Gecko) Chrome/108.0.0.0 Safari/537.36 Edg/108.0.1462.54" etag="88YsLKtkQDpRlrIbp9ru" version="20.7.4" type="github">
  <diagram id="yFhTgLjL-dq6zD-HdHkg" name="Page-1">
    <mxGraphModel dx="1050" dy="549" grid="1" gridSize="10" guides="1" tooltips="1" connect="1" arrows="1" fold="1" page="1" pageScale="1" pageWidth="850" pageHeight="1100" math="0" shadow="0">
      <root>
        <mxCell id="0" />
        <mxCell id="1" parent="0" />
        <mxCell id="lGEIJaAXRUyNCMLdhOS5-20" style="edgeStyle=orthogonalEdgeStyle;rounded=0;orthogonalLoop=1;jettySize=auto;html=1;exitX=0.5;exitY=1;exitDx=0;exitDy=0;entryX=0.5;entryY=0;entryDx=0;entryDy=0;" parent="1" source="lGEIJaAXRUyNCMLdhOS5-3" target="lGEIJaAXRUyNCMLdhOS5-15" edge="1">
          <mxGeometry relative="1" as="geometry" />
        </mxCell>
        <mxCell id="lGEIJaAXRUyNCMLdhOS5-3" value="" style="rounded=0;whiteSpace=wrap;html=1;fillColor=#ffe6cc;strokeColor=#d79b00;" parent="1" vertex="1">
          <mxGeometry x="320" y="80" width="200" height="130" as="geometry" />
        </mxCell>
        <mxCell id="lGEIJaAXRUyNCMLdhOS5-18" style="edgeStyle=orthogonalEdgeStyle;rounded=0;orthogonalLoop=1;jettySize=auto;html=1;exitX=0.5;exitY=1;exitDx=0;exitDy=0;entryX=0.5;entryY=0;entryDx=0;entryDy=0;" parent="1" source="lGEIJaAXRUyNCMLdhOS5-3" target="lGEIJaAXRUyNCMLdhOS5-12" edge="1">
          <mxGeometry relative="1" as="geometry" />
        </mxCell>
        <mxCell id="lGEIJaAXRUyNCMLdhOS5-4" value="Name node" style="rounded=0;whiteSpace=wrap;html=1;" parent="1" vertex="1">
          <mxGeometry x="350" y="90" width="140" height="60" as="geometry" />
        </mxCell>
        <mxCell id="lGEIJaAXRUyNCMLdhOS5-5" value="Resource manager" style="rounded=0;whiteSpace=wrap;html=1;" parent="1" vertex="1">
          <mxGeometry x="350" y="160" width="140" height="40" as="geometry" />
        </mxCell>
        <mxCell id="lGEIJaAXRUyNCMLdhOS5-12" value="" style="rounded=0;whiteSpace=wrap;html=1;fillColor=#f8cecc;strokeColor=#b85450;" parent="1" vertex="1">
          <mxGeometry x="80" y="280" width="200" height="130" as="geometry" />
        </mxCell>
        <mxCell id="lGEIJaAXRUyNCMLdhOS5-13" value="Data node 1" style="rounded=0;whiteSpace=wrap;html=1;" parent="1" vertex="1">
          <mxGeometry x="110" y="290" width="140" height="60" as="geometry" />
        </mxCell>
        <mxCell id="lGEIJaAXRUyNCMLdhOS5-14" value="Node manager 1" style="rounded=0;whiteSpace=wrap;html=1;" parent="1" vertex="1">
          <mxGeometry x="110" y="360" width="140" height="40" as="geometry" />
        </mxCell>
        <mxCell id="lGEIJaAXRUyNCMLdhOS5-15" value="" style="rounded=0;whiteSpace=wrap;html=1;fillColor=#f8cecc;strokeColor=#b85450;" parent="1" vertex="1">
          <mxGeometry x="560" y="280" width="200" height="130" as="geometry" />
        </mxCell>
        <mxCell id="lGEIJaAXRUyNCMLdhOS5-16" value="Data node 2" style="rounded=0;whiteSpace=wrap;html=1;" parent="1" vertex="1">
          <mxGeometry x="590" y="290" width="140" height="60" as="geometry" />
        </mxCell>
        <mxCell id="lGEIJaAXRUyNCMLdhOS5-17" value="Node manager 2" style="rounded=0;whiteSpace=wrap;html=1;" parent="1" vertex="1">
          <mxGeometry x="590" y="360" width="140" height="40" as="geometry" />
        </mxCell>
        <mxCell id="9JDnfZZQFYclRvjPChz7-1" value="&lt;font color=&quot;#007fff&quot;&gt;Master&lt;/font&gt;" style="text;html=1;align=center;verticalAlign=middle;whiteSpace=wrap;rounded=0;strokeColor=none;" vertex="1" parent="1">
          <mxGeometry x="395" y="30" width="60" height="30" as="geometry" />
        </mxCell>
        <mxCell id="9JDnfZZQFYclRvjPChz7-3" value="&lt;font color=&quot;#007fff&quot;&gt;Slave&lt;/font&gt;" style="text;html=1;align=center;verticalAlign=middle;whiteSpace=wrap;rounded=0;strokeColor=none;" vertex="1" parent="1">
          <mxGeometry x="140" y="430" width="60" height="30" as="geometry" />
        </mxCell>
        <mxCell id="9JDnfZZQFYclRvjPChz7-4" value="&lt;font color=&quot;#007fff&quot;&gt;Slave&lt;/font&gt;" style="text;html=1;align=center;verticalAlign=middle;whiteSpace=wrap;rounded=0;strokeColor=none;" vertex="1" parent="1">
          <mxGeometry x="630" y="430" width="60" height="30" as="geometry" />
        </mxCell>
      </root>
    </mxGraphModel>
  </diagram>
</mxfile>
